<svg xmlns="http://www.w3.org/2000/svg" viewBox="0 0 64 64">
  <defs>
    <linearGradient id="g" x1="0" y1="0" x2="1" y2="1">
      <stop offset="0" stop-color="#d0d0d0"/>
      <stop offset="0.5" stop-color="#7a7a7a"/>
      <stop offset="1" stop-color="#d0d0d0"/>
    </linearGradient>
    <radialGradient id="r" cx="50%" cy="40%" r="70%">
      <stop offset="0" stop-color="#2a2a2a"/>
      <stop offset="1" stop-color="#0f0f0f"/>
    </radialGradient>
  </defs>
  <rect width="64" height="64" rx="14" fill="url(#r)"/>
  <!-- gear-ish mark -->
  <g fill="url(#g)" transform="translate(32 32)">
    <path d="M0-20l4 1 3-3 6 3-1 4 4 2v6l-4 2 1 4-6 3-3-3-4 1-2 4h-6l-2-4-4-1-3 3-6-3 1-4-4-2v-6l4-2-1-4 6-3 3 3 4-1 2-4h6z" opacity="0.95"/>
    <circle r="10" fill="#121212"/>
    <circle r="7" fill="url(#g)" opacity="0.95"/>
  </g>
</svg>
